<mxfile host="app.diagrams.net" agent="Mozilla/5.0 (Windows NT 10.0; Win64; x64) AppleWebKit/537.36 (KHTML, like Gecko) Chrome/127.0.0.0 Safari/537.36" version="24.7.10">
  <diagram name="Page-1" id="yqXgtMik4_VGuAX3bsz8">
    <mxGraphModel dx="880" dy="468" grid="1" gridSize="10" guides="1" tooltips="1" connect="1" arrows="1" fold="1" page="1" pageScale="1" pageWidth="850" pageHeight="1100" math="0" shadow="0">
      <root>
        <mxCell id="0" />
        <mxCell id="1" parent="0" />
        <mxCell id="9t43iz4XaggdrnGgveMh-1" value="start" style="ellipse;whiteSpace=wrap;html=1;" vertex="1" parent="1">
          <mxGeometry x="200" y="20" width="60" height="30" as="geometry" />
        </mxCell>
        <mxCell id="9t43iz4XaggdrnGgveMh-2" value="numberofhours" style="shape=parallelogram;perimeter=parallelogramPerimeter;whiteSpace=wrap;html=1;fixedSize=1;" vertex="1" parent="1">
          <mxGeometry x="160" y="79" width="120" height="60" as="geometry" />
        </mxCell>
        <mxCell id="9t43iz4XaggdrnGgveMh-3" value="wholesalecostof&lt;div&gt;materials&lt;/div&gt;" style="shape=parallelogram;perimeter=parallelogramPerimeter;whiteSpace=wrap;html=1;fixedSize=1;" vertex="1" parent="1">
          <mxGeometry x="330" y="80" width="120" height="60" as="geometry" />
        </mxCell>
        <mxCell id="9t43iz4XaggdrnGgveMh-4" value="laborcost=numberofhours&lt;div&gt;*30&lt;/div&gt;" style="rounded=0;whiteSpace=wrap;html=1;" vertex="1" parent="1">
          <mxGeometry x="130" y="180" width="140" height="60" as="geometry" />
        </mxCell>
        <mxCell id="9t43iz4XaggdrnGgveMh-5" value="totalcost=laborcost&lt;div&gt;+materialmarkup&lt;/div&gt;" style="rounded=0;whiteSpace=wrap;html=1;" vertex="1" parent="1">
          <mxGeometry x="490" y="180" width="120" height="60" as="geometry" />
        </mxCell>
        <mxCell id="9t43iz4XaggdrnGgveMh-6" value="materialmarkup=&lt;div&gt;wholesalecostofmaterials&lt;/div&gt;&lt;div&gt;*1.2&lt;/div&gt;" style="rounded=0;whiteSpace=wrap;html=1;" vertex="1" parent="1">
          <mxGeometry x="300" y="180" width="140" height="60" as="geometry" />
        </mxCell>
        <mxCell id="9t43iz4XaggdrnGgveMh-7" value="totalcost" style="shape=parallelogram;perimeter=parallelogramPerimeter;whiteSpace=wrap;html=1;fixedSize=1;" vertex="1" parent="1">
          <mxGeometry x="130" y="280" width="120" height="60" as="geometry" />
        </mxCell>
        <mxCell id="9t43iz4XaggdrnGgveMh-8" value="end of program" style="shape=parallelogram;perimeter=parallelogramPerimeter;whiteSpace=wrap;html=1;fixedSize=1;" vertex="1" parent="1">
          <mxGeometry x="305" y="280" width="120" height="60" as="geometry" />
        </mxCell>
        <mxCell id="9t43iz4XaggdrnGgveMh-9" value="end" style="ellipse;whiteSpace=wrap;html=1;" vertex="1" parent="1">
          <mxGeometry x="320" y="390" width="70" height="30" as="geometry" />
        </mxCell>
        <mxCell id="9t43iz4XaggdrnGgveMh-10" value="" style="endArrow=classic;html=1;rounded=0;entryX=0.575;entryY=-0.033;entryDx=0;entryDy=0;entryPerimeter=0;" edge="1" parent="1" target="9t43iz4XaggdrnGgveMh-2">
          <mxGeometry width="50" height="50" relative="1" as="geometry">
            <mxPoint x="230" y="50" as="sourcePoint" />
            <mxPoint x="280" as="targetPoint" />
          </mxGeometry>
        </mxCell>
        <mxCell id="9t43iz4XaggdrnGgveMh-11" value="" style="endArrow=classic;html=1;rounded=0;" edge="1" parent="1" target="9t43iz4XaggdrnGgveMh-3">
          <mxGeometry width="50" height="50" relative="1" as="geometry">
            <mxPoint x="270" y="110" as="sourcePoint" />
            <mxPoint x="320" y="60" as="targetPoint" />
          </mxGeometry>
        </mxCell>
        <mxCell id="9t43iz4XaggdrnGgveMh-12" value="" style="endArrow=classic;html=1;rounded=0;entryX=0.443;entryY=0.033;entryDx=0;entryDy=0;entryPerimeter=0;edgeStyle=orthogonalEdgeStyle;" edge="1" parent="1" target="9t43iz4XaggdrnGgveMh-4">
          <mxGeometry width="50" height="50" relative="1" as="geometry">
            <mxPoint x="440" y="120" as="sourcePoint" />
            <mxPoint x="490" y="70" as="targetPoint" />
            <Array as="points">
              <mxPoint x="440" y="150" />
              <mxPoint x="192" y="150" />
            </Array>
          </mxGeometry>
        </mxCell>
        <mxCell id="9t43iz4XaggdrnGgveMh-13" value="" style="endArrow=classic;html=1;rounded=0;exitX=1;exitY=0.5;exitDx=0;exitDy=0;entryX=0;entryY=0.5;entryDx=0;entryDy=0;" edge="1" parent="1" source="9t43iz4XaggdrnGgveMh-4" target="9t43iz4XaggdrnGgveMh-6">
          <mxGeometry width="50" height="50" relative="1" as="geometry">
            <mxPoint x="400" y="250" as="sourcePoint" />
            <mxPoint x="450" y="200" as="targetPoint" />
          </mxGeometry>
        </mxCell>
        <mxCell id="9t43iz4XaggdrnGgveMh-14" value="" style="endArrow=classic;html=1;rounded=0;entryX=0;entryY=0.5;entryDx=0;entryDy=0;exitX=1;exitY=0.5;exitDx=0;exitDy=0;" edge="1" parent="1" source="9t43iz4XaggdrnGgveMh-6" target="9t43iz4XaggdrnGgveMh-5">
          <mxGeometry width="50" height="50" relative="1" as="geometry">
            <mxPoint x="400" y="250" as="sourcePoint" />
            <mxPoint x="450" y="200" as="targetPoint" />
          </mxGeometry>
        </mxCell>
        <mxCell id="9t43iz4XaggdrnGgveMh-15" value="" style="endArrow=classic;html=1;rounded=0;entryX=0.642;entryY=0;entryDx=0;entryDy=0;entryPerimeter=0;exitX=1;exitY=1;exitDx=0;exitDy=0;edgeStyle=orthogonalEdgeStyle;" edge="1" parent="1" source="9t43iz4XaggdrnGgveMh-5" target="9t43iz4XaggdrnGgveMh-7">
          <mxGeometry width="50" height="50" relative="1" as="geometry">
            <mxPoint x="400" y="250" as="sourcePoint" />
            <mxPoint x="450" y="200" as="targetPoint" />
            <Array as="points">
              <mxPoint x="590" y="240" />
              <mxPoint x="590" y="260" />
              <mxPoint x="207" y="260" />
            </Array>
          </mxGeometry>
        </mxCell>
        <mxCell id="9t43iz4XaggdrnGgveMh-16" value="" style="endArrow=classic;html=1;rounded=0;exitX=1;exitY=0.5;exitDx=0;exitDy=0;entryX=0;entryY=0.5;entryDx=0;entryDy=0;" edge="1" parent="1" source="9t43iz4XaggdrnGgveMh-7" target="9t43iz4XaggdrnGgveMh-8">
          <mxGeometry width="50" height="50" relative="1" as="geometry">
            <mxPoint x="400" y="250" as="sourcePoint" />
            <mxPoint x="450" y="200" as="targetPoint" />
          </mxGeometry>
        </mxCell>
        <mxCell id="9t43iz4XaggdrnGgveMh-18" value="" style="endArrow=classic;html=1;rounded=0;entryX=0.629;entryY=-0.067;entryDx=0;entryDy=0;entryPerimeter=0;exitX=0.5;exitY=1;exitDx=0;exitDy=0;" edge="1" parent="1" source="9t43iz4XaggdrnGgveMh-8" target="9t43iz4XaggdrnGgveMh-9">
          <mxGeometry width="50" height="50" relative="1" as="geometry">
            <mxPoint x="330" y="380" as="sourcePoint" />
            <mxPoint x="380" y="330" as="targetPoint" />
          </mxGeometry>
        </mxCell>
      </root>
    </mxGraphModel>
  </diagram>
</mxfile>
